HIERARCHY
ROOT Hips
{
	OFFSET 0.00000 0.00000 0.00000
	CHANNELS 6 Xposition Yposition Zposition Zrotation Yrotation Xrotation 
	JOINT LHipJoint
	{
		OFFSET 0 0 0
		CHANNELS 3 Zrotation Yrotation Xrotation
		JOINT LeftUpLeg
		{
			OFFSET 1.75344 -1.53157 0.77399
			CHANNELS 3 Zrotation Yrotation Xrotation
			JOINT LeftLeg
			{
				OFFSET 2.25415 -6.19323 0.00000
				CHANNELS 3 Zrotation Yrotation Xrotation
				JOINT LeftFoot
				{
					OFFSET 2.30342 -6.32861 0.00000
					CHANNELS 3 Zrotation Yrotation Xrotation
					JOINT LeftToeBase
					{
						OFFSET 0.10958 -0.30108 1.49206
						CHANNELS 3 Zrotation Yrotation Xrotation
						End Site
						{
							OFFSET 0.00000 -0.00000 0.77783
						}
					}
				}
			}
		}
	}
	JOINT RHipJoint
	{
		OFFSET 0 0 0
		CHANNELS 3 Zrotation Yrotation Xrotation
		JOINT RightUpLeg
		{
			OFFSET -1.81912 -1.53156 0.77399
			CHANNELS 3 Zrotation Yrotation Xrotation
			JOINT RightLeg
			{
				OFFSET -2.22882 -6.12365 0.00000
				CHANNELS 3 Zrotation Yrotation Xrotation
				JOINT RightFoot
				{
					OFFSET -2.21943 -6.09785 0.00000
					CHANNELS 3 Zrotation Yrotation Xrotation
					JOINT RightToeBase
					{
						OFFSET -0.18931 -0.52012 1.59379
						CHANNELS 3 Zrotation Yrotation Xrotation
						End Site
						{
							OFFSET -0.00000 -0.00000 0.84686
						}
					}
				}
			}
		}
	}
	JOINT LowerBack
	{
		OFFSET 0 0 0
		CHANNELS 3 Zrotation Yrotation Xrotation
		JOINT Spine
		{
			OFFSET -0.00200 1.66634 -0.14248
			CHANNELS 3 Zrotation Yrotation Xrotation
			JOINT Spine1
			{
				OFFSET -0.00875 1.64542 0.09514
				CHANNELS 3 Zrotation Yrotation Xrotation
				JOINT Neck
				{
					OFFSET 0 0 0
					CHANNELS 3 Zrotation Yrotation Xrotation
					JOINT Neck1
					{
						OFFSET 0.02257 1.59605 0.00839
						CHANNELS 3 Zrotation Yrotation Xrotation
						JOINT Head
						{
							OFFSET -0.10214 1.57530 -0.23335
							CHANNELS 3 Zrotation Yrotation Xrotation
							End Site
							{
								OFFSET -0.03588 1.60717 -0.08062
							}
						}
					}
				}
				JOINT LeftShoulder
				{
					OFFSET 0 0 0
					CHANNELS 3 Zrotation Yrotation Xrotation
					JOINT LeftArm
					{
						OFFSET 2.54983 1.10186 0.40078
						CHANNELS 3 Zrotation Yrotation Xrotation
						JOINT LeftForeArm
						{
							OFFSET 4.28840 -0.00000 0.00000
							CHANNELS 3 Zrotation Yrotation Xrotation
							JOINT LeftHand
							{
								OFFSET 3.06552 -0.00000 -0.00000
								CHANNELS 3 Zrotation Yrotation Xrotation
								JOINT LeftFingerBase
								{
									OFFSET 0 0 0
									CHANNELS 3 Zrotation Yrotation Xrotation
									JOINT LeftHandIndex1
									{
										OFFSET 0.75304 -0.00000 0.00000
										CHANNELS 3 Zrotation Yrotation Xrotation
										End Site
										{
											OFFSET 0.60712 -0.00000 0.00000
										}
									}
								}
								JOINT LThumb
								{
									OFFSET 0 0 0
									CHANNELS 3 Zrotation Yrotation Xrotation
									End Site
									{
										OFFSET 0.61639 -0.00000 0.61639
									}
								}
							}
						}
					}
				}
				JOINT RightShoulder
				{
					OFFSET 0 0 0
					CHANNELS 3 Zrotation Yrotation Xrotation
					JOINT RightArm
					{
						OFFSET -2.60909 1.35448 0.21802
						CHANNELS 3 Zrotation Yrotation Xrotation
						JOINT RightForeArm
						{
							OFFSET -4.52172 -0.00000 -0.00000
							CHANNELS 3 Zrotation Yrotation Xrotation
							JOINT RightHand
							{
								OFFSET -2.89140 -0.00000 0.00000
								CHANNELS 3 Zrotation Yrotation Xrotation
								JOINT RightFingerBase
								{
									OFFSET 0 0 0
									CHANNELS 3 Zrotation Yrotation Xrotation
									JOINT RightHandIndex1
									{
										OFFSET -0.68054 -0.00000 0.00000
										CHANNELS 3 Zrotation Yrotation Xrotation
										End Site
										{
											OFFSET -0.54867 -0.00000 0.00000
										}
									}
								}
								JOINT RThumb
								{
									OFFSET 0 0 0
									CHANNELS 3 Zrotation Yrotation Xrotation
									End Site
									{
										OFFSET -0.55705 -0.00000 0.55705
									}
								}
							}
						}
					}
				}
			}
		}
	}
}
MOTION
Frames: 6
Frame Time: .0083333
8.9243 15.0378 41.6471 0 0 0 0 0 0 -21 0 0 0 0 0 0 0 0 0 0 0 0 0 0 21 0 0 0 0 0 0 0 0 0 0 0 0 0 0 0 0 0 0 0 0 0 0 -16 0 0 21 0 0 11 0 0 0 -8 0 0 0 0 0 0 0 0 0 0 0 0 0 0 0 0 0 0 0 0 8 0 0 0 0 0 0 0 0 0 0 0 0 0 0 0 0 0
8.9243 15.0378 41.6471 178.3330 -1.8980 179.0560 0.0000 0.0000 0.0000 -28.7895 -24.1224 2.5421 2.6630 10.1285 29.3938 2.2877 12.0633 -34.9260 0.0007 0.1753 0.4818 0.0000 0.0000 0.0000 24.2302 13.1112 -1.7549 -2.8500 -10.4482 30.4407 -2.0410 -14.9252 -35.7340 -0.4691 -4.3929 12.1848 -0.2051 0.6221 4.1344 0.2044 0.5912 -5.8742 0.2782 0.2074 -8.4971 8.8378 14.1807 -3.5224 1.3966 17.9992 13.1193 0.1728 9.2106 5.2155 0.0000 -0.0000 0.0000 -85.9148 17.4002 31.8811 21.6988 -32.6350 -6.4227 -0.0000 -0.0000 4.9527 12.1548 -29.4889 -6.0521 -7.1250 0.0000 -0.0000 -10.8537 0.4002 10.9768 0.0000 -0.0000 0.0000 81.8177 -17.3440 49.7415 -21.2610 32.1318 -6.1882 0.0000 0.0000 0.2262 133.7928 61.6218 -42.5429 7.1250 -0.0000 -0.0000 -173.0410 -50.3496 -0.9214
8.9211 15.0411 41.6509 178.2320 -1.8194 179.1010 0.0000 0.0000 0.0000 -28.6709 -23.4891 2.1400 2.6540 10.1126 29.3423 2.1641 12.0900 -34.2622 0.0171 -0.8448 -2.3219 0.0000 0.0000 0.0000 24.1123 13.2357 -1.8206 -2.8645 -10.4724 30.5204 -2.0198 -15.1027 -35.7628 -0.4098 -4.1096 11.3852 -0.2439 0.6891 4.1301 0.1564 0.6750 -5.8705 0.2398 0.2493 -8.4910 8.9044 14.1802 -3.7508 1.4075 17.9647 13.3402 0.1932 9.1978 5.3266 0.0000 -0.0000 0.0000 -85.7217 16.1736 31.9688 21.1210 -31.9693 -6.1139 -0.0000 -0.0000 5.5139 11.6130 -29.5048 -5.7793 -7.1250 0.0000 -0.0000 -11.1682 0.4601 11.2954 0.0000 -0.0000 0.0000 81.7431 -17.3313 49.7654 -21.3162 32.1956 -6.2176 0.0000 0.0000 0.2376 134.0682 61.7398 -42.3001 7.1250 -0.0000 -0.0000 -172.8533 -50.3436 -0.9455
8.9177 15.0437 41.6526 178.2610 -1.8664 179.1950 0.0000 0.0000 0.0000 -28.6138 -23.5725 1.9952 2.6694 10.1397 29.4302 2.1557 12.1154 -34.2336 0.0233 -0.9861 -2.7105 0.0000 0.0000 0.0000 24.1037 13.2024 -1.9093 -2.8525 -10.4523 30.4543 -2.0043 -15.1446 -35.7132 -0.4156 -4.1378 11.4647 -0.1700 0.6621 4.0228 0.1816 0.6440 -5.8765 0.2295 0.2292 -8.4334 8.7477 14.2301 -3.8349 1.5980 18.0141 13.3590 0.2778 9.2267 5.3155 -0.0000 -0.0000 0.0000 -85.8246 16.6421 31.3636 21.5777 -32.4965 -6.3575 -0.0000 -0.0000 6.7603 10.6353 -29.5267 -5.2874 -7.1250 0.0000 -0.0000 -11.7344 0.5702 11.8695 -0.0000 -0.0000 0.0000 81.6487 -17.1828 49.7832 -21.2948 32.1708 -6.2062 0.0000 0.0000 0.3813 134.3019 61.7801 -42.0782 7.1250 -0.0000 -0.0000 -172.7302 -50.3859 -0.9695
8.9147 15.0459 41.6547 178.6270 -1.8993 179.3320 0.0000 0.0000 0.0000 -28.0525 -23.4296 1.6458 2.6779 10.1544 29.4781 2.1589 11.8415 -34.0563 0.0285 -1.0889 -2.9934 0.0000 0.0000 0.0000 24.4555 13.2292 -2.0682 -2.8471 -10.4433 30.4246 -1.9930 -15.2496 -35.7381 -0.4190 -4.1547 11.5124 0.2613 0.6440 3.8771 0.2747 0.6541 -5.9096 0.0861 0.2075 -8.3788 8.8169 14.2256 -3.9001 1.4829 18.0123 13.3986 0.2436 9.2227 5.3557 -0.0000 -0.0000 0.0000 -85.8336 16.3838 30.9605 21.5376 -32.4505 -6.3360 -0.0000 -0.0000 7.7579 9.8293 -29.4325 -4.8663 -7.1250 0.0000 -0.0000 -12.1942 0.7670 12.3133 -0.0000 -0.0000 0.0000 81.6411 -17.0280 49.7438 -21.2383 32.1054 -6.1761 0.0000 0.0000 0.6152 134.6475 61.8362 -41.7495 7.1250 -0.0000 -0.0000 -172.5490 -50.4502 -1.0057
8.9105 15.0423 41.6529 178.4260 -1.8109 179.1490 0.0000 0.0000 0.0000 -28.3350 -23.1835 1.7723 2.6875 10.1711 29.5325 2.2252 11.5534 -34.2260 0.0423 -1.3275 -3.6503 0.0000 0.0000 0.0000 24.2444 13.1147 -1.8646 -2.8397 -10.4310 30.3839 -2.0098 -15.2181 -35.8026 -0.3940 -4.0303 11.1619 0.1434 0.6921 3.9989 0.1876 0.7141 -5.8284 0.0524 0.2457 -8.3629 8.9800 14.2003 -3.9260 1.2717 17.9919 13.3846 0.1636 9.2082 5.3897 -0.0000 -0.0000 0.0000 -85.7627 15.9352 30.2128 21.4540 -32.3545 -6.2912 -0.0000 -0.0000 9.7021 8.3476 -29.7146 -4.1599 -7.1250 0.0000 -0.0000 -13.0606 0.6736 13.2565 -0.0000 -0.0000 0.0000 81.6758 -16.9244 49.6723 -21.1990 32.0599 -6.1552 0.0000 0.0000 0.9159 134.8089 62.0547 -41.6470 7.1250 -0.0000 -0.0000 -172.3528 -50.3231 -1.0084
